# xmcd
#
# Track frame offsets:
#	182
#	9857
#	24632
#	40232
#	54182
#	69932
#	85232
#	102782
#	121682
#	136232
#	161132
#	174182
#	187382
#	203732
#	220832
#
# Disc length: 3137
#
# Revision: 1
# Processed by: cddbd v1.5.1PL0 Copyright (c) Steve Scherf et al.
# Submitted via: CDex 1.51
# Normalized: r0:DSETVAR1
#
DISCID=be0c3f0f
DTITLE=Various Artist - 20 Anni di Umbria Jazz - I Protagonisti
DYEAR=1993
DGENRE=Jazz
TTITLE0=Dizzy Gillespie - Night In Tunisia
TTITLE1=Gerry Mulligan - Boplicity
TTITLE2=Carmen McRae - You Know Who
TTITLE3=New York Voices - Cotton Tail
TTITLE4=Chet Baker - Somewhere Over The Rainbow
TTITLE5=Tito Puente - What Is The Thing Called Love
TTITLE6=Gil Evans - King Porter Stomp
TTITLE7=Enrico Rava - El Samba Graciela
TTITLE8=BB King - Sweet Little Angel
TTITLE9=Michael Brecker - Nothing Personal
TTITLE10=Tuck and Patti - As Time Goes By
TTITLE11=John Pizzarelli - Three Little Words
TTITLE12=Perigeo - Take Off
TTITLE13=Charles Mingus - Tijuana Gift Shop
TTITLE14=Keith Jarret - Silence
EXTD=YEAR: 1993
EXTT0=
EXTT1=
EXTT2=
EXTT3=
EXTT4=
EXTT5=
EXTT6=
EXTT7=
EXTT8=
EXTT9=
EXTT10=
EXTT11=
EXTT12=
EXTT13=
EXTT14=
PLAYORDER=
